<svg width="131.000000" height="94.000000" viewBox="0 0 131 94" fill="none" xmlns="http://www.w3.org/2000/svg" xmlns:xlink="http://www.w3.org/1999/xlink">
	<desc>
			Created with Pixso.
	</desc>
	<defs>
		<linearGradient id="paint_linear_70_2646_0" x1="147.338074" y1="-83.551422" x2="212.336304" y2="1.710060" gradientUnits="userSpaceOnUse">
			<stop stop-color="#1BBF67"/>
			<stop offset="1.000000" stop-color="#4A1DAF"/>
		</linearGradient>
		<linearGradient id="paint_linear_70_2647_0" x1="49.506680" y1="-0.252939" x2="78.448318" y2="59.915249" gradientUnits="userSpaceOnUse">
			<stop stop-color="#571FB3"/>
			<stop offset="1.000000" stop-color="#260D4D"/>
		</linearGradient>
		<linearGradient id="paint_linear_70_2649_0" x1="50.267006" y1="20.310871" x2="82.255165" y2="46.967663" gradientUnits="userSpaceOnUse">
			<stop stop-color="#13734A"/>
			<stop offset="1.000000" stop-color="#1A3B78"/>
		</linearGradient>
		<linearGradient id="paint_linear_70_2651_0" x1="41.552849" y1="3.049804" x2="46.459423" y2="15.740783" gradientUnits="userSpaceOnUse">
			<stop stop-color="#E9E9E9"/>
			<stop offset="1.000000" stop-color="#E5E5E5"/>
		</linearGradient>
		<linearGradient id="paint_linear_70_2654_0" x1="-23.666512" y1="22.883377" x2="-37.518509" y2="65.515450" gradientUnits="userSpaceOnUse">
			<stop stop-color="#F7487B"/>
			<stop offset="1.000000" stop-color="#FEC800"/>
		</linearGradient>
		<linearGradient id="paint_linear_70_2655_0" x1="-59.734653" y1="-488.603607" x2="-48.402302" y2="-519.738953" gradientUnits="userSpaceOnUse">
			<stop stop-color="#A91948"/>
			<stop offset="1.000000" stop-color="#FEC800"/>
		</linearGradient>
	</defs>
	<path id="path2" d="M3.91 93.64L3.91 77.68L12.19 77.68C13.28 77.68 14.29 77.87 15.22 78.25C16.15 78.64 16.95 79.18 17.62 79.89C18.29 80.59 18.82 81.43 19.2 82.4C19.58 83.38 19.77 84.46 19.77 85.66C19.77 86.85 19.58 87.94 19.2 88.92C18.82 89.9 18.29 90.74 17.62 91.44C16.95 92.13 16.15 92.67 15.22 93.06C14.29 93.44 13.28 93.64 12.19 93.64L3.91 93.64ZM12.45 89.51C12.95 89.51 13.41 89.42 13.84 89.23C14.26 89.04 14.62 88.78 14.93 88.44C15.24 88.11 15.48 87.7 15.65 87.23C15.82 86.75 15.9 86.23 15.9 85.66C15.9 85.08 15.82 84.56 15.65 84.08C15.48 83.61 15.24 83.2 14.93 82.86C14.62 82.51 14.26 82.25 13.84 82.06C13.41 81.87 12.95 81.78 12.45 81.78L7.79 81.78L7.79 89.51L12.45 89.51ZM28.67 89.9C29.32 89.9 29.85 89.68 30.27 89.24C30.69 88.8 30.9 88.22 30.9 87.5C30.9 86.78 30.69 86.2 30.27 85.77C29.85 85.33 29.32 85.12 28.67 85.12L27.1 85.12C26.43 85.12 25.89 85.33 25.48 85.77C25.07 86.2 24.86 86.78 24.86 87.5C24.86 88.22 25.07 88.8 25.48 89.24C25.89 89.68 26.43 89.9 27.1 89.9L28.67 89.9ZM27.12 93.64C26.26 93.64 25.47 93.49 24.75 93.19C24.03 92.9 23.4 92.48 22.87 91.94C22.34 91.4 21.93 90.75 21.63 90C21.34 89.25 21.19 88.41 21.19 87.5C21.19 86.6 21.34 85.77 21.63 85.02C21.93 84.26 22.34 83.62 22.87 83.08C23.4 82.54 24.03 82.12 24.75 81.83C25.47 81.53 26.26 81.38 27.12 81.38L28.67 81.38C29.52 81.38 30.31 81.53 31.03 81.83C31.76 82.12 32.38 82.54 32.91 83.08C33.44 83.62 33.86 84.26 34.15 85.02C34.45 85.77 34.59 86.6 34.59 87.5C34.59 88.41 34.45 89.25 34.15 90C33.86 90.75 33.44 91.4 32.91 91.94C32.38 92.48 31.76 92.9 31.03 93.19C30.31 93.49 29.52 93.64 28.67 93.64L27.12 93.64ZM41.81 93.64C40.95 93.64 40.16 93.49 39.44 93.21C38.72 92.92 38.09 92.51 37.56 91.97C37.03 91.43 36.62 90.76 36.32 89.96C36.03 89.17 35.88 88.27 35.88 87.25C35.88 85.42 36.38 83.96 37.37 82.88C38.37 81.8 39.85 81.26 41.83 81.26C42.3 81.26 42.77 81.29 43.23 81.35C43.7 81.4 44.12 81.49 44.5 81.6L44.5 85.31C44.12 85.21 43.73 85.13 43.33 85.07C42.93 85 42.57 84.97 42.23 84.97C41.39 84.97 40.73 85.14 40.27 85.5C39.8 85.85 39.57 86.47 39.57 87.37C39.57 88.23 39.78 88.86 40.19 89.28C40.6 89.69 41.14 89.9 41.81 89.9L43.66 89.9C44.95 89.9 45.59 89.2 45.59 87.79L45.59 76.42L49.28 76.42L49.28 87.79C49.28 89.67 48.82 91.12 47.9 92.13C46.98 93.13 45.6 93.64 43.75 93.64L41.81 93.64ZM58.37 89.9C59.02 89.9 59.56 89.68 59.98 89.24C60.4 88.8 60.61 88.22 60.61 87.5C60.61 86.78 60.4 86.2 59.98 85.77C59.56 85.33 59.02 85.12 58.37 85.12L56.8 85.12C56.14 85.12 55.6 85.33 55.19 85.77C54.78 86.2 54.57 86.78 54.57 87.5C54.57 88.22 54.78 88.8 55.19 89.24C55.6 89.68 56.14 89.9 56.8 89.9L58.37 89.9ZM56.83 93.64C55.97 93.64 55.18 93.49 54.46 93.19C53.74 92.9 53.11 92.48 52.58 91.94C52.05 91.4 51.63 90.75 51.34 90C51.04 89.25 50.9 88.41 50.9 87.5C50.9 86.6 51.04 85.77 51.34 85.02C51.63 84.26 52.05 83.62 52.58 83.08C53.11 82.54 53.74 82.12 54.46 81.83C55.18 81.53 55.97 81.38 56.83 81.38L58.37 81.38C59.23 81.38 60.02 81.53 60.74 81.83C61.46 82.12 62.09 82.54 62.62 83.08C63.15 83.62 63.56 84.26 63.86 85.02C64.15 85.77 64.3 86.6 64.3 87.5C64.3 88.41 64.15 89.25 63.86 90C63.56 90.75 63.15 91.4 62.62 91.94C62.09 92.48 61.46 92.9 60.74 93.19C60.02 93.49 59.23 93.64 58.37 93.64L56.83 93.64Z" fill="#EFEAE7" fill-opacity="1.000000" fill-rule="evenodd"/>
	<path id="path4" d="M65.81 93.64L65.81 89.51L76.56 89.51C76.84 89.51 77.07 89.42 77.24 89.23C77.42 89.04 77.51 88.77 77.51 88.43C77.51 88.09 77.42 87.82 77.24 87.62C77.07 87.42 76.84 87.33 76.56 87.33L70.23 87.33C69.57 87.33 68.95 87.21 68.38 86.97C67.82 86.73 67.33 86.4 66.92 85.99C66.52 85.57 66.2 85.07 65.97 84.48C65.74 83.89 65.63 83.23 65.63 82.51C65.63 81.79 65.74 81.13 65.97 80.54C66.2 79.94 66.52 79.43 66.92 79C67.33 78.58 67.82 78.25 68.38 78.02C68.95 77.79 69.57 77.68 70.23 77.68L81.16 77.68L81.16 81.78L70.41 81.78C70.13 81.78 69.9 81.87 69.73 82.05C69.56 82.23 69.48 82.49 69.48 82.83C69.48 83.16 69.56 83.42 69.73 83.62C69.9 83.81 70.13 83.91 70.41 83.91L76.73 83.91C77.41 83.91 78.03 84.03 78.59 84.27C79.15 84.51 79.64 84.84 80.05 85.26C80.47 85.69 80.79 86.2 81.01 86.8C81.24 87.39 81.36 88.05 81.36 88.75C81.36 89.49 81.24 90.15 81.01 90.75C80.79 91.35 80.47 91.86 80.05 92.3C79.64 92.73 79.15 93.06 78.59 93.29C78.03 93.52 77.41 93.64 76.73 93.64L65.81 93.64ZM88.61 93.64C87.76 93.64 86.97 93.49 86.25 93.19C85.52 92.9 84.9 92.48 84.37 91.94C83.84 91.4 83.42 90.75 83.13 90C82.83 89.25 82.68 88.41 82.68 87.5C82.68 86.6 82.83 85.77 83.13 85.02C83.42 84.26 83.84 83.62 84.37 83.08C84.9 82.54 85.52 82.12 86.25 81.83C86.97 81.53 87.76 81.38 88.61 81.38L91.42 81.38C92.06 81.38 92.61 81.48 93.08 81.68C93.55 81.87 93.95 82.14 94.26 82.49C94.58 82.83 94.82 83.25 94.97 83.73C95.13 84.21 95.2 84.74 95.2 85.31C95.2 86.39 94.92 87.2 94.36 87.74C93.8 88.28 92.88 88.55 91.6 88.55L87.66 88.55L87.66 86.32L90.83 86.32C91.4 86.32 91.69 86.03 91.69 85.46C91.69 84.85 91.41 84.55 90.85 84.55L88.59 84.55C87.93 84.55 87.39 84.8 86.98 85.31C86.56 85.82 86.36 86.54 86.36 87.47C86.36 88.41 86.56 89.11 86.98 89.57C87.39 90.04 87.93 90.27 88.59 90.27L94.61 90.27L94.61 93.64L88.61 93.64ZM96.93 93.64L96.93 76.42L100.62 76.42L100.62 93.64L96.93 93.64ZM102.81 93.64L102.81 76.42L106.51 76.42L106.51 93.64L102.81 93.64ZM114.18 93.64C113.33 93.64 112.54 93.49 111.82 93.19C111.09 92.9 110.47 92.48 109.94 91.94C109.41 91.4 108.99 90.75 108.7 90C108.4 89.25 108.26 88.41 108.26 87.5C108.26 86.6 108.4 85.77 108.7 85.02C108.99 84.26 109.41 83.62 109.94 83.08C110.47 82.54 111.09 82.12 111.82 81.83C112.54 81.53 113.33 81.38 114.18 81.38L116.99 81.38C117.63 81.38 118.18 81.48 118.65 81.68C119.12 81.87 119.52 82.14 119.84 82.49C120.15 82.83 120.39 83.25 120.54 83.73C120.7 84.21 120.78 84.74 120.78 85.31C120.78 86.39 120.5 87.2 119.94 87.74C119.38 88.28 118.45 88.55 117.17 88.55L113.23 88.55L113.23 86.32L116.4 86.32C116.97 86.32 117.26 86.03 117.26 85.46C117.26 84.85 116.98 84.55 116.42 84.55L114.16 84.55C113.5 84.55 112.96 84.8 112.55 85.31C112.13 85.82 111.93 86.54 111.93 87.47C111.93 88.41 112.13 89.11 112.55 89.57C112.96 90.04 113.5 90.27 114.16 90.27L120.18 90.27L120.18 93.64L114.18 93.64ZM122.39 93.64L122.39 87.23C122.39 85.36 122.86 83.92 123.78 82.91C124.71 81.89 126.08 81.38 127.9 81.38L131 81.38L131 85.12L127.99 85.12C126.72 85.12 126.08 85.81 126.08 87.2L126.08 93.64L122.39 93.64Z" fill="#21AF68" fill-opacity="1.000000" fill-rule="evenodd"/>
	<path id="path6" d="M128.1 15.73L128.33 14.63C127.68 7.9 128.7 10.79 124.54 5.81L120.14 3.77L118.96 3.77L115.43 3.77L115.2 3.77L115.11 3.85L115.01 3.85L114.78 4.06L112.48 5.06C108.8 8.33 109.47 6.68 108.26 10.93C106.9 15.74 107.57 13.97 108.39 18.74L111.58 22.52L115.94 25.04L120.49 24.25L123.23 23.06L127.11 20.66L128.11 15.89L128.1 15.73Z" fill="#54147E" fill-opacity="1.000000" fill-rule="evenodd"/>
	<path id="path10" d="M115.59 4.58L113 5.78L109.89 8.69L112.49 7.5L115.59 4.58Z" fill="#FAB000" fill-opacity="1.000000" fill-rule="evenodd"/>
	<path id="path14" d="M118.91 22.56L116.31 23.75L120.37 23.01L122.97 21.81L118.91 22.56Z" fill="#E0650F" fill-opacity="1.000000" fill-rule="evenodd"/>
	<path id="path18" d="M112.49 7.5L109.89 8.69L108.72 13.03L111.32 11.83L112.49 7.5Z" fill="#FFE400" fill-opacity="1.000000" fill-rule="evenodd"/>
	<path id="path22" d="M115.02 20.19L112.43 21.38L116.31 23.75L118.91 22.56L115.02 20.19Z" fill="#F39000" fill-opacity="1.000000" fill-rule="evenodd"/>
	<path id="path26" d="M112.07 16.51L109.48 17.7L112.42 21.38L115.02 20.19L112.07 16.51Z" fill="#FAB000" fill-opacity="1.000000" fill-rule="evenodd"/>
	<path id="path30" d="M111.32 11.83L108.72 13.03L109.48 17.7L112.07 16.51L111.32 11.83Z" fill="#FEC900" fill-opacity="1.000000" fill-rule="evenodd"/>
	<path id="path34" d="M119.67 4.67L115.39 4.67L112.28 7.59L111.12 11.92L111.87 16.6L114.82 20.28L118.7 22.65L122.77 21.9L126.24 19.64L127.13 15.15L126.7 10.43L123.69 6.64L119.67 4.67Z" fill="#FFE400" fill-opacity="1.000000" fill-rule="evenodd"/>
	<path id="path38" d="M119.88 4.58L115.6 4.58L112.49 7.5L111.32 11.83L112.08 16.51L115.02 20.19L118.91 22.56L122.97 21.81L126.45 19.55L127.34 15.06L126.9 10.34L123.9 6.55L119.88 4.58Z" fill="#FEC900" fill-opacity="1.000000" fill-rule="evenodd"/>
	<path id="path42" d="M118.95 4.58L119.88 4.58L123.9 6.55L124.26 7.01L112.55 17.1L112.08 16.51L111.32 11.83L111.56 10.95L118.95 4.58Z" fill="#FFD600" fill-opacity="1.000000" fill-rule="evenodd"/>
	<path id="path46" d="M127.05 11.97L127.34 15.06L127.13 16.08L119.81 22.39L118.91 22.56L116.48 21.08L127.05 11.97Z" fill="#FFD600" fill-opacity="1.000000" fill-rule="evenodd"/>
	<path id="path50" d="M119.89 7.19L123.78 9.87L125.32 14.59L123.44 18.77L119.2 19.88L115.31 17.02L113.7 12.25L115.64 8.03L119.89 7.19Z" fill="#FFE400" fill-opacity="1.000000" fill-rule="evenodd"/>
	<path id="path54" d="M119.72 7.21L123.6 9.89L125.14 14.61L123.27 18.81L119.03 19.92L115.13 17.03L113.52 12.27L115.46 8.04L119.72 7.21Z" fill="#F39000" fill-opacity="1.000000" fill-rule="evenodd"/>
	<path id="path58" d="M122.93 10.27L118.81 7.39L119.72 7.21L123.6 9.89L122.93 10.27Z" fill="#DB4715" fill-opacity="1.000000" fill-rule="evenodd"/>
	<path id="path62" d="M123.27 18.81L122.48 19.02L124.21 14.6L125.14 14.61L123.27 18.81Z" fill="#FAB000" fill-opacity="1.000000" fill-rule="evenodd"/>
	<path id="path66" d="M123.6 9.89L125.14 14.61L124.21 14.6L122.92 10.27L123.6 9.89Z" fill="#E0650F" fill-opacity="1.000000" fill-rule="evenodd"/>
	<path id="path70" d="M21.95 56.97L22.15 57.91C21.59 63.62 22.47 61.16 18.94 65.38L15.2 67.11L14.2 67.11L11.21 67.11L11.02 67.11L10.94 67.05L10.85 67.05L10.66 66.87L8.71 66.02C5.59 63.25 6.16 64.65 5.13 61.04C3.98 56.97 4.55 58.46 5.24 54.42L7.95 51.22L11.64 49.08L15.5 49.75L17.82 50.76L21.12 52.8L21.96 56.84L21.95 56.97Z" fill="#54147E" fill-opacity="1.000000" fill-rule="evenodd"/>
	<path id="path74" d="M11.47 65.94L9.39 64.98L6.91 62.66L8.99 63.61L11.47 65.94Z" fill="#FAB000" fill-opacity="1.000000" fill-rule="evenodd"/>
	<path id="path78" d="M14.11 51.59L12.04 50.64L15.28 51.23L17.35 52.18L14.11 51.59Z" fill="#E0650F" fill-opacity="1.000000" fill-rule="evenodd"/>
	<path id="path82" d="M8.99 63.61L6.91 62.66L5.98 59.2L8.05 60.15L8.99 63.61Z" fill="#FFE400" fill-opacity="1.000000" fill-rule="evenodd"/>
	<path id="path86" d="M11.01 53.48L8.94 52.53L12.04 50.64L14.11 51.59L11.01 53.48Z" fill="#F39000" fill-opacity="1.000000" fill-rule="evenodd"/>
	<path id="path90" d="M8.66 56.42L6.58 55.47L8.94 52.53L11.01 53.48L8.66 56.42Z" fill="#FAB000" fill-opacity="1.000000" fill-rule="evenodd"/>
	<path id="path94" d="M8.05 60.15L5.98 59.2L6.58 55.47L8.66 56.42L8.05 60.15Z" fill="#FEC900" fill-opacity="1.000000" fill-rule="evenodd"/>
	<path id="path98" d="M14.72 65.87L11.3 65.87L8.82 63.54L7.89 60.08L8.49 56.35L10.85 53.41L13.95 51.52L17.19 52.11L19.97 53.92L20.67 57.5L20.33 61.27L17.93 64.3L14.72 65.87Z" fill="#FFE400" fill-opacity="1.000000" fill-rule="evenodd"/>
	<path id="path102" d="M14.88 65.94L11.47 65.94L8.99 63.61L8.06 60.15L8.66 56.42L11.01 53.48L14.11 51.59L17.35 52.18L20.13 53.99L20.84 57.57L20.49 61.34L18.09 64.37L14.88 65.94Z" fill="#FEC900" fill-opacity="1.000000" fill-rule="evenodd"/>
	<path id="path106" d="M14.14 65.94L14.88 65.94L18.09 64.37L18.38 64L9.04 55.95L8.66 56.42L8.06 60.15L8.25 60.86L14.14 65.94Z" fill="#FFD600" fill-opacity="1.000000" fill-rule="evenodd"/>
	<path id="path110" d="M20.61 60.04L20.84 57.57L20.68 56.76L14.83 51.72L14.11 51.59L12.18 52.77L20.61 60.04Z" fill="#FFD600" fill-opacity="1.000000" fill-rule="evenodd"/>
	<path id="path114" d="M14.9 63.85L18 61.71L19.22 57.95L17.73 54.62L14.34 53.73L11.23 56.01L9.96 59.82L11.5 63.19L14.9 63.85Z" fill="#FFE400" fill-opacity="1.000000" fill-rule="evenodd"/>
	<path id="path118" d="M14.75 63.84L17.85 61.7L19.08 57.93L17.59 54.58L14.21 53.7L11.09 56L9.81 59.8L11.36 63.17L14.75 63.84Z" fill="#F39000" fill-opacity="1.000000" fill-rule="evenodd"/>
	<path id="path122" d="M17.32 61.4L14.03 63.7L14.76 63.84L17.85 61.7L17.32 61.4Z" fill="#DB4715" fill-opacity="1.000000" fill-rule="evenodd"/>
	<path id="path126" d="M17.59 54.58L16.96 54.42L18.34 57.94L19.08 57.93L17.59 54.58Z" fill="#FAB000" fill-opacity="1.000000" fill-rule="evenodd"/>
	<path id="path130" d="M17.85 61.7L19.08 57.93L18.34 57.94L17.32 61.4L17.85 61.7Z" fill="#E0650F" fill-opacity="1.000000" fill-rule="evenodd"/>
	<path id="path134" d="M126.44 63.29L125.67 63.71L125.57 63.8L117 65.01L116.41 65.09L116.16 65.13L114.81 65.31L113.78 63.55C112.04 60.61 110.3 57.66 108.57 54.71C111.2 52.28 112.52 50.3 114.94 47.64L116.39 46.05L117.64 46.69L125.85 50.91L127.18 51.6L127.06 53.43L126.62 60.47L126.44 63.29Z" fill="#54147E" fill-opacity="1.000000" fill-rule="evenodd"/>
	<path id="path138" d="M123.84 53.04L125.74 52.41L116.7 47.76L118.42 50.25L123.84 53.04Z" fill="#848CEC" fill-opacity="1.000000" fill-rule="evenodd"/>
	<path id="path142" d="M123.48 58.85L125.13 62.07L125.74 52.41L123.84 53.04L123.48 58.85Z" fill="#4951AC" fill-opacity="1.000000" fill-rule="evenodd"/>
	<path id="path146" d="M118.42 50.25L116.7 47.76L110.51 54.55L114.7 54.33L118.42 50.25Z" fill="#4951AC" fill-opacity="1.000000" fill-rule="evenodd"/>
	<path id="path150" d="M114.7 54.33L110.51 54.55L115.72 63.4L117.83 59.64L114.7 54.33Z" fill="#4951AC" fill-opacity="1.000000" fill-rule="evenodd"/>
	<path id="path154" d="M118.42 50.25L114.7 54.33L117.83 59.64L123.48 58.85L123.84 53.04L118.42 50.25Z" fill="#FFFFFF" fill-opacity="1.000000" fill-rule="evenodd"/>
	<path id="path158" d="M117.83 59.64L115.72 63.4L125.13 62.07L123.48 58.84L117.83 59.64Z" fill="#848CEC" fill-opacity="1.000000" fill-rule="evenodd"/>
	<path id="path162" d="" fill="#ACCB4D" fill-opacity="1.000000" fill-rule="nonzero"/>
	<path id="path166" d="" fill="#E3E476" fill-opacity="1.000000" fill-rule="nonzero"/>
	<path id="path170" d="" fill="#E3E476" fill-opacity="1.000000" fill-rule="nonzero"/>
	<path id="path174" d="M24.15 19.7L25.12 21.23L23.49 22.39L11.22 31.12L9.42 32.39L8.44 30.84L1.2 19.39L0 17.49L1.32 16.55L14.32 7.31L15.7 6.33L16.98 8.36L24.15 19.7Z" fill="#54147E" fill-opacity="1.000000" fill-rule="evenodd"/>
	<path id="path178" d="M6.29 17.05L1.87 17.86L15.31 8.3L11.85 13.1L6.29 17.05Z" fill="#848CEC" fill-opacity="1.000000" fill-rule="evenodd"/>
	<path id="path182" d="M9.57 22.24L9.81 30.42L1.87 17.86L6.29 17.05L9.57 22.24Z" fill="#4951AC" fill-opacity="1.000000" fill-rule="evenodd"/>
	<path id="path186" d="M15.13 18.29L23.25 20.86L9.81 30.42L9.57 22.24L15.13 18.29Z" fill="#848CEC" fill-opacity="1.000000" fill-rule="evenodd"/>
	<path id="path190" d="M11.85 13.1L15.31 8.3L23.25 20.86L15.14 18.29L11.85 13.1Z" fill="#4951AC" fill-opacity="1.000000" fill-rule="evenodd"/>
	<path id="path194" d="M11.85 13.1L15.14 18.29L9.57 22.24L9.51 22.14L6.29 17.05L11.85 13.1Z" fill="#FFFFFF" fill-opacity="1.000000" fill-rule="evenodd"/>
	<path id="path206" d="M42.11 1.41L72.33 1.41C90.01 1.41 104.48 15.87 104.48 33.56C104.48 51.24 90.01 65.71 72.33 65.71L42.57 65.71L33.72 56.33L33.72 10.3L42.11 1.41Z" fill="url(#paint_linear_70_2646_0)" fill-opacity="1.000000" fill-rule="nonzero"/>
	<path id="path228" d="M42.11 -0.26L72.33 -0.26C81.63 -0.26 90.08 3.55 96.21 9.67C102.34 15.8 106.14 24.26 106.14 33.56C106.14 42.86 102.34 51.31 96.21 57.44C90.08 63.57 81.63 67.37 72.33 67.37L41.86 67.37L32.06 56.99L32.06 9.64L41.4 -0.26L42.11 -0.26ZM72.33 3.07L42.82 3.07L35.39 10.95L35.39 55.68L43.28 64.04L72.33 64.04C80.71 64.04 88.33 60.61 93.86 55.09C99.38 49.56 102.81 41.94 102.81 33.56C102.81 25.18 99.38 17.55 93.86 12.03C88.33 6.5 80.71 3.07 72.33 3.07Z" fill="url(#paint_linear_70_2647_0)" fill-opacity="1.000000" fill-rule="evenodd"/>
	<path id="path234" d="M49.81 17.49L49.81 49.62L72.33 49.62C81.13 49.62 88.39 42.36 88.39 33.56C88.39 24.75 81.13 17.49 72.33 17.49L49.81 17.49Z" fill="#36246B" fill-opacity="1.000000" fill-rule="evenodd"/>
	<path id="path240" d="M51.47 19.16L51.47 47.96L72.33 47.96C76.27 47.96 79.87 46.33 82.48 43.71C85.1 41.1 86.73 37.5 86.73 33.56C86.73 29.62 85.1 26.02 82.48 23.4C79.87 20.79 76.27 19.16 72.33 19.16L51.47 19.16ZM48.14 49.62L48.14 15.83L72.33 15.83C77.19 15.83 81.62 17.83 84.84 21.05C88.05 24.26 90.05 28.7 90.05 33.56C90.05 38.42 88.05 42.85 84.84 46.07C81.62 49.28 77.19 51.29 72.33 51.29L48.14 51.29L48.14 49.62Z" fill="url(#paint_linear_70_2649_0)" fill-opacity="1.000000" fill-rule="evenodd"/>
	<path id="path246" d="M43.06 64.18L48.44 51.24L35.28 55.71L43.06 64.18Z" fill="#009EE0" fill-opacity="1.000000" fill-rule="evenodd"/>
	<path id="path252" d="M34.92 11.34L48.17 15.89L42.88 3.04L34.92 11.34Z" fill="url(#paint_linear_70_2651_0)" fill-opacity="1.000000" fill-rule="evenodd"/>
	<path id="path258" d="M71.15 2.28L64.09 9.49L69.85 16.42L68.83 17.27L62.31 9.41L70.21 1.35L71.15 2.28Z" fill="#1B1918" fill-opacity="1.000000" fill-rule="evenodd"/>
	<path id="path264" d="M77.12 22.26L72.97 22.67C72.84 23.78 73.18 24.92 73.57 25.95C74.37 28.11 75.48 30.13 76.22 32.33C78.8 39.98 75.06 45.16 68.81 49.51L68.31 49.86L50.64 50.13L50.39 28.53L52.09 28.25C54.17 27.91 56.27 27.88 58.28 28.34C57.65 27.37 57.03 26.38 56.45 25.37C53.66 20.57 51.26 14.72 53.27 9.45L48.74 8.68L52.87 5.88C56.55 3.39 61.2 0.99 65.78 1.29C70.17 1.58 73.29 4.23 75.49 7.8L79.85 7.92C81.8 7.67 84.11 7.66 85.72 8.93C87.32 10.19 87.6 12.14 87.26 14.04C86.56 18 83.07 23.31 80.84 26.64L79.51 28.62L76.3 25.53L76.73 24.31C76.86 23.95 77.25 22.71 77.12 22.26Z" fill="#1B1918" fill-opacity="1.000000" fill-rule="evenodd"/>
	<path id="path278" d="M79.18 25.52L78.62 24.98C79.66 22.08 79.1 20.59 77.28 20.23L71.41 20.81C68.08 28.36 83.75 36.67 67.67 47.87L52.62 48.1L52.41 30.23C58.6 29.21 62.96 31.59 65.62 37.14C65.29 32.21 49.19 17.74 56.36 7.95L54 7.54C62.59 1.73 69.7 1.28 74.31 9.77L79.96 9.93C88.84 8.68 85.55 16.02 79.18 25.52Z" fill="url(#paint_linear_70_2654_0)" fill-opacity="1.000000" fill-rule="nonzero"/>
	<path id="path308" d="M78.21 23.34C78.42 21.66 77.76 20.74 76.39 20.47L70.52 21.05C67.19 28.6 82.86 36.91 66.78 48.11L51.73 48.34C57.79 47.61 61.62 47.29 60.82 42.48L68.99 42.42C75.38 37.26 64.34 24.28 62.01 15.2L75.93 15.58C75.66 20.84 80.06 20.97 78.21 23.34Z" fill="url(#paint_linear_70_2655_0)" fill-opacity="1.000000" fill-rule="nonzero"/>
	<path id="path330" d="M77.51 18.76L77.35 18.73C73.19 19.14 69.11 20.59 65.48 17.92C62.29 15.56 61.16 11.67 62.97 9.22C65.3 6.05 70.91 6.95 73.01 10.48L73.42 11.24L79.24 11.4C77.76 12.4 76.79 14.1 76.79 16.02C76.79 17.02 77.05 17.95 77.51 18.76Z" fill="#FFFFFF" fill-opacity="1.000000" fill-rule="evenodd"/>
	<path id="path336" d="M67.61 9.21C68.52 9.21 69.26 10.18 69.26 11.39C69.26 12.59 68.52 13.56 67.61 13.56C66.7 13.56 65.96 12.59 65.96 11.39C65.96 10.18 66.7 9.21 67.61 9.21Z" fill="#1B1918" fill-opacity="1.000000" fill-rule="evenodd"/>
	<path id="path342" d="M72.29 22.53C72.11 22.54 71.92 22.54 71.73 22.55C68.6 22.67 64.55 21.24 62.84 14.71C63.23 16.83 67.67 21.3 72.23 20.73L72.29 22.53Z" fill="#1B1918" fill-opacity="1.000000" fill-rule="evenodd"/>
	<path id="path348" d="M82.76 10.77C83.97 11.2 84.22 13.61 83.32 16.16C82.92 17.29 82.36 18.26 81.76 18.94C81.99 18.51 82.21 18.03 82.39 17.52C83.29 14.97 83.04 12.55 81.83 12.12C81.16 11.88 80.32 12.31 79.56 13.18C80.5 11.45 81.79 10.42 82.76 10.77Z" fill="#FFFFFF" fill-opacity="1.000000" fill-rule="evenodd"/>
	<path id="path354" d="M64.1 39.11L64.1 43.01C64.1 43.85 63.74 44.45 63.18 44.92C62.7 45.33 62.08 45.61 61.45 45.85L51.62 49.51L51.15 48.27L60.99 44.6C61.5 44.42 61.98 44.2 62.33 43.91C62.59 43.68 62.77 43.4 62.77 43.01L62.77 39.11L64.1 39.11Z" fill="#1B1918" fill-opacity="1.000000" fill-rule="evenodd"/>
</svg>
