<svg width="29" height="30" viewBox="0 0 29 30" fill="none" xmlns="http://www.w3.org/2000/svg">
<path d="M22.5559 3.58946L19.6684 2.04009C17.1337 0.680036 15.8663 0 14.503 0C13.1396 0 11.8722 0.680036 9.33754 2.04009L8.87305 2.28932L21.7559 9.81638L27.5551 6.85161C26.6222 5.77127 25.1169 4.96356 22.5559 3.58946Z" fill="#848CEC"/>
<path d="M28.5737 8.80469L22.8009 11.7559V16.2384C22.8009 16.8499 22.3161 17.3456 21.7181 17.3456C21.1201 17.3456 20.6352 16.8499 20.6352 16.2384V12.8631L15.582 15.4464V29.3827C16.6185 29.1188 17.7979 28.4859 19.6646 27.4843L22.5521 25.935C25.6587 24.268 27.2119 23.4347 28.0744 21.9371C28.937 20.4395 28.937 18.5757 28.937 14.8486V14.6759C28.937 11.882 28.937 10.1351 28.5737 8.80469Z" fill="#848CEC"/>
<path d="M13.4194 29.3827V15.4464L0.427765 8.80469C0.0644533 10.1351 0.0644531 11.882 0.0644531 14.6759V14.8486C0.0644531 18.5757 0.064453 20.4395 0.926965 21.9371C1.78946 23.4347 3.34272 24.268 6.44924 25.935L9.3368 27.4843C11.2035 28.4859 12.3829 29.1188 13.4194 29.3827Z" fill="#848CEC"/>
<path d="M1.44922 6.85163L14.5014 13.5244L19.4264 11.0066L6.59609 3.51025L6.44844 3.58948C3.88755 4.96358 2.3822 5.77129 1.44922 6.85163Z" fill="#848CEC"/>
</svg>
