<svg width="29" height="29" viewBox="0 0 29 29" fill="none" xmlns="http://www.w3.org/2000/svg">
<path fill-rule="evenodd" clip-rule="evenodd" d="M15.5704 3.27023C15.5704 3.86058 15.0912 4.33914 14.4999 4.33914C13.9087 4.33914 13.4295 3.86058 13.4295 3.27023V0.458984C10.2932 0.691214 7.43904 1.93561 5.19331 3.86623L7.40728 6.07712C7.82529 6.49456 7.82529 7.17135 7.40728 7.58879C6.98927 8.00622 6.31154 8.00622 5.89352 7.58879L3.67954 5.37789C1.74625 7.6205 0.500121 10.4707 0.267578 13.6027H3.08243C3.67358 13.6027 4.15281 14.0812 4.15281 14.6716C4.15281 15.2619 3.67358 15.7406 3.08243 15.7406H0.267578C0.500121 18.8725 1.74625 21.7227 3.67954 23.9653L5.89352 21.7544C6.31154 21.337 6.98927 21.337 7.40728 21.7544C7.82529 22.1719 7.82529 22.8486 7.40728 23.2661L5.19331 25.4771C7.69206 27.6251 10.9441 28.9237 14.4999 28.9237C18.0558 28.9237 21.3078 27.6251 23.8066 25.4771L21.5926 23.2661C21.1746 22.8486 21.1746 22.1719 21.5926 21.7544C22.0106 21.337 22.6884 21.337 23.1064 21.7544L25.3204 23.9653C27.2537 21.7227 28.4997 18.8725 28.7323 15.7406H25.9171C25.3259 15.7406 24.8467 15.2619 24.8467 14.6716C24.8467 14.0812 25.3259 13.6027 25.9171 13.6027H28.7323C28.4997 10.4707 27.2537 7.6205 25.3204 5.37789L23.1064 7.58879C22.6884 8.00622 22.0106 8.00622 21.5926 7.58879C21.1746 7.17135 21.1746 6.49456 21.5926 6.07712L23.8066 3.86623C21.5609 1.93561 18.7066 0.691214 15.5704 0.458984V3.27023ZM11.817 11.993C10.1449 13.6628 10.1449 16.3699 11.817 18.0397C12.453 18.6748 13.7734 19.1185 15.1653 19.4243C17.2469 19.8816 18.2877 20.1103 19.1166 19.2826C19.9455 18.4548 19.7165 17.4154 19.2585 15.3368C18.9522 13.9467 18.5081 12.6282 17.872 11.993C16.2 10.3233 13.489 10.3233 11.817 11.993Z" fill="#848CEC"/>
</svg>
