<svg width="18.000000" height="19.000000" viewBox="0 0 18 19" fill="none" xmlns="http://www.w3.org/2000/svg" xmlns:xlink="http://www.w3.org/1999/xlink">
	<desc>
			Created with Pixso.
	</desc>
	<defs>
		<linearGradient id="paint_linear_17_1008_0" x1="8.812491" y1="-0.791748" x2="8.812491" y2="18.791565" gradientUnits="userSpaceOnUse">
			<stop stop-color="#4ED997"/>
			<stop offset="1.000000" stop-color="#246445"/>
		</linearGradient>
	</defs>
	<path id="Vector" d="M0.36 2.22C0 2.75 0 4.31 0 7.44L0 8.99C0 14.51 4.15 17.19 6.75 18.32C7.46 18.63 7.81 18.79 8.81 18.79C9.81 18.79 10.16 18.63 10.86 18.32C13.47 17.19 17.62 14.51 17.62 8.99L17.62 7.44C17.62 4.31 17.62 2.75 17.25 2.22C16.88 1.69 15.41 1.19 12.47 0.18L11.9 -0.01C10.37 -0.53 9.6 -0.8 8.81 -0.8C8.01 -0.8 7.25 -0.53 5.71 -0.01L5.15 0.18C2.21 1.19 0.74 1.69 0.36 2.22ZM13.16 7.97L9.83 5.47C9.23 5.01 8.39 5.01 7.78 5.47L4.45 7.97C4.13 8.21 4.06 8.67 4.3 9C4.55 9.32 5.01 9.39 5.33 9.14L8.66 6.64C8.75 6.58 8.87 6.58 8.95 6.64L12.28 9.14C12.61 9.39 13.07 9.32 13.31 9C13.56 8.67 13.49 8.21 13.16 7.97ZM11.21 10.41L9.25 8.95C8.99 8.75 8.63 8.75 8.37 8.95L6.41 10.41C6.08 10.66 6.02 11.12 6.26 11.44C6.5 11.77 6.97 11.83 7.29 11.59L8.81 10.45L10.33 11.59C10.65 11.83 11.11 11.77 11.35 11.44C11.6 11.12 11.53 10.66 11.21 10.41Z" fill="url(#paint_linear_17_1008_0)" fill-opacity="1.000000" fill-rule="evenodd"/>
</svg>
