<svg width="18.000000" height="19.000000" viewBox="0 0 18 19" fill="none" xmlns="http://www.w3.org/2000/svg" xmlns:xlink="http://www.w3.org/1999/xlink">
	<desc>
			Created with Pixso.
	</desc>
	<defs/>
	<path id="Vector" d="M16.19 4.14C16.05 4.14 15.93 4.02 15.93 3.88L15.93 1.81C15.93 1.33 15.74 0.88 15.4 0.54C15.09 0.23 14.69 0.05 14.26 0.01C14.17 0.01 14.08 0 13.99 0C13.91 0 13.84 0.02 13.77 0.04L1.7 4.1C1.63 4.12 1.55 4.14 1.48 4.14L1.44 4.14C1.36 4.14 1.27 4.15 1.19 4.18C1.16 4.19 1.12 4.2 1.08 4.2C1.02 4.2 0.97 4.21 0.92 4.24L0.91 4.25C0.85 4.28 0.81 4.31 0.78 4.36L0.75 4.4C0.72 4.44 0.69 4.48 0.65 4.52L0.56 4.59L0.52 4.63C0.47 4.67 0.43 4.72 0.39 4.77C0.34 4.82 0.29 4.87 0.26 4.92C0.25 4.93 0.25 4.94 0.24 4.95C0.2 5.01 0.17 5.07 0.14 5.14L0.08 5.25C0.06 5.29 0.05 5.33 0.03 5.37C0.01 5.44 0 5.52 0 5.59C-0.01 5.71 -0.01 5.82 0 5.94L0 16.26C0.01 16.73 0.19 17.18 0.51 17.51C0.83 17.85 1.27 18.05 1.74 18.07L16.19 18.07C16.67 18.07 17.12 17.88 17.46 17.54C17.8 17.2 17.99 16.74 18 16.26L18 5.94C17.99 5.46 17.8 5.01 17.46 4.67C17.12 4.33 16.67 4.14 16.19 4.14ZM14.05 1.62C14.15 1.58 14.27 1.58 14.33 1.66C14.36 1.71 14.38 1.76 14.38 1.81L14.38 3.03C14.38 3.64 13.89 4.14 13.28 4.14C12.03 4.14 11.75 2.39 12.93 1.99L14.05 1.62ZM16.45 16.26C16.45 16.33 16.42 16.4 16.37 16.45C16.32 16.49 16.26 16.52 16.19 16.52L1.74 16.52C1.67 16.52 1.6 16.49 1.55 16.45C1.51 16.4 1.48 16.33 1.48 16.26L1.48 5.94C1.48 5.87 1.51 5.81 1.55 5.76C1.6 5.71 1.67 5.68 1.74 5.68L16.19 5.68C16.26 5.68 16.32 5.71 16.37 5.76C16.42 5.81 16.45 5.87 16.45 5.94L16.45 16.26Z" fill="#848CEC" fill-opacity="1.000000" fill-rule="nonzero"/>
	<path id="Vector" d="M13.61 12.39C14.32 12.39 14.9 11.82 14.9 11.1C14.9 10.39 14.32 9.81 13.61 9.81C12.9 9.81 12.32 10.39 12.32 11.1C12.32 11.82 12.9 12.39 13.61 12.39Z" fill="#848CEC" fill-opacity="1.000000" fill-rule="nonzero"/>
</svg>
