<svg width="68.122314" height="82.773193" viewBox="0 0 68.1223 82.7732" fill="none" xmlns="http://www.w3.org/2000/svg" xmlns:xlink="http://www.w3.org/1999/xlink">
	<desc>
			Created with Pixso.
	</desc>
	<defs>
		<linearGradient x1="33.255150" y1="-0.275949" x2="33.140656" y2="83.235023" id="paint_linear_141_3645_0" gradientUnits="userSpaceOnUse">
			<stop stop-color="#8FFF00"/>
			<stop offset="1.000000" stop-color="#4A8302"/>
		</linearGradient>
		<linearGradient x1="32.790459" y1="-1.021026" x2="32.910259" y2="82.862991" id="paint_linear_141_3645_1" gradientUnits="userSpaceOnUse">
			<stop stop-color="#BCFF67"/>
			<stop offset="0.791325" stop-color="#BCFF67" stop-opacity="0.000000"/>
		</linearGradient>
	</defs>
	<path id="Vector" d="M15.09 2.1C27.67 1.39 40.27 1.31 52.85 1.88C61.13 2.25 67.29 9.59 66.54 17.93L62.16 66.93C61.42 75.23 54.07 81.39 45.64 81.11C38.17 80.87 30.69 80.91 23.23 81.24C14.8 81.61 7.38 75.55 6.54 67.25L1.59 18.3C0.75 9.97 6.81 2.57 15.09 2.1Z" fill="url(#paint_linear_141_3645_0)" fill-opacity="1.000000" fill-rule="nonzero"/>
	<path id="Vector" d="M52.85 1.88C61.13 2.25 67.29 9.59 66.54 17.93L62.16 66.93C61.42 75.23 54.07 81.39 45.64 81.11C38.17 80.87 30.69 80.91 23.23 81.24C14.8 81.61 7.38 75.55 6.54 67.25L1.59 18.3C0.75 9.97 6.81 2.57 15.09 2.1C27.67 1.39 40.27 1.31 52.85 1.88Z" stroke="url(#paint_linear_141_3645_1)" stroke-opacity="1.000000" stroke-width="3.014440"/>
</svg>
