<svg width="13.000000" height="12.974426" viewBox="0 0 13 12.9744" fill="none" xmlns="http://www.w3.org/2000/svg" xmlns:xlink="http://www.w3.org/1999/xlink">
	<desc>
			Created with Pixso.
	</desc>
	<defs/>
	<path id="Vector" d="M4.56 0C2.86 0 1.48 1.38 1.48 3.08C1.48 4.78 2.78 6.09 4.48 6.15C4.54 6.15 4.59 6.15 4.63 6.15L4.67 6.15C6.33 6.09 7.64 4.74 7.64 3.08C7.64 1.38 6.26 0 4.56 0Z" fill="#B2B6BDFF" fill-opacity="1.000000" fill-rule="nonzero"/>
	<path id="Vector" d="M7.86 7.88C6.05 6.67 3.1 6.67 1.27 7.88C0.45 8.43 0 9.17 0 9.97C0 10.77 0.45 11.51 1.27 12.05C2.17 12.66 3.37 12.97 4.56 12.97C5.76 12.97 6.95 12.66 7.86 12.05C8.68 11.5 9.13 10.76 9.13 9.96C9.12 9.16 8.68 8.42 7.86 7.88Z" fill="#B2B6BDFF" fill-opacity="1.000000" fill-rule="nonzero"/>
	<path id="Vector" d="M11.69 3.46C11.8 4.72 10.9 5.82 9.66 5.97L9.63 5.97C9.59 5.97 9.55 5.97 9.52 5.98C8.89 6.01 8.31 5.81 7.88 5.44C8.54 4.85 8.93 3.95 8.85 2.98C8.8 2.45 8.62 1.97 8.35 1.56C8.6 1.44 8.88 1.36 9.17 1.34C10.45 1.23 11.58 2.17 11.69 3.46Z" fill="#B2B6BDFF" fill-opacity="1.000000" fill-rule="nonzero"/>
	<path id="Vector" d="M12.99 9.46C12.94 10.09 12.53 10.63 11.86 11C11.21 11.36 10.39 11.53 9.58 11.51C10.05 11.09 10.32 10.56 10.37 10.01C10.44 9.2 10.06 8.43 9.29 7.81C8.86 7.47 8.35 7.2 7.8 7C9.23 6.58 11.04 6.86 12.14 7.75C12.74 8.23 13.05 8.84 12.99 9.46Z" fill="#B2B6BDFF" fill-opacity="1.000000" fill-rule="nonzero"/>
</svg>
