<svg width="68.117920" height="82.768799" viewBox="0 0 68.1179 82.7688" fill="none" xmlns="http://www.w3.org/2000/svg" xmlns:xlink="http://www.w3.org/1999/xlink">
	<desc>
			Created with Pixso.
	</desc>
	<defs>
		<linearGradient x1="31.989756" y1="0.204136" x2="30.498554" y2="85.401817" id="paint_linear_33_254_0" gradientUnits="userSpaceOnUse">
			<stop offset="0.015961" stop-color="#B57AFF"/>
			<stop offset="0.886068" stop-color="#3E008C"/>
		</linearGradient>
		<linearGradient x1="31.989723" y1="0.204105" x2="36.518410" y2="80.094742" id="paint_linear_33_254_1" gradientUnits="userSpaceOnUse">
			<stop stop-color="#B267FF"/>
			<stop offset="1.000000" stop-color="#B267FF" stop-opacity="0.000000"/>
		</linearGradient>
	</defs>
	<path id="Vector" d="M15.09 2.1C27.66 1.38 40.27 1.31 52.85 1.88C61.13 2.25 67.28 9.58 66.54 17.92L62.16 66.92C61.42 75.23 54.07 81.38 45.64 81.11C38.17 80.87 30.69 80.91 23.23 81.24C14.8 81.61 7.37 75.54 6.54 67.25L1.59 18.3C0.75 9.97 6.81 2.56 15.09 2.1Z" fill="url(#paint_linear_33_254_0)" fill-opacity="1.000000" fill-rule="nonzero"/>
	<path id="Vector" d="M52.85 1.88C61.13 2.25 67.28 9.58 66.54 17.92L62.16 66.92C61.42 75.23 54.07 81.38 45.64 81.11C38.17 80.87 30.69 80.91 23.23 81.24C14.8 81.61 7.37 75.54 6.54 67.25L1.59 18.3C0.75 9.97 6.81 2.56 15.09 2.1C27.66 1.38 40.27 1.31 52.85 1.88Z" stroke="url(#paint_linear_33_254_1)" stroke-opacity="1.000000" stroke-width="3.010000"/>
</svg>
