<svg width="20" height="20" viewBox="0 0 20 20" fill="none" xmlns="http://www.w3.org/2000/svg">
<path fill-rule="evenodd" clip-rule="evenodd" d="M0 10C0 5.52165 -1.19209e-07 3.28248 1.46447 1.89125C2.92893 0.5 5.28595 0.5 10 0.5C14.714 0.5 17.0711 0.5 18.5355 1.89125C20 3.28248 20 5.52165 20 10C20 14.4783 20 16.7175 18.5355 18.1087C17.0711 19.5 14.714 19.5 10 19.5C5.28595 19.5 2.92893 19.5 1.46447 18.1087C-1.19209e-07 16.7175 0 14.4783 0 10ZM13.9346 3.912C14.217 4.02129 14.4017 4.28215 14.4017 4.57185V7.15064C14.4017 7.54415 14.0659 7.86314 13.6517 7.86314H11C10.6983 7.86314 10.4259 7.69135 10.3088 7.42715C10.1917 7.16296 10.2527 6.85783 10.4635 6.65276L11.225 5.9122C9.7795 5.48886 8.1467 5.83238 7.00097 6.94666C5.33301 8.56882 5.33301 11.2055 7.00097 12.8277C8.6593 14.4405 11.3407 14.4405 12.999 12.8277C13.6769 12.1685 14.0805 11.3406 14.2069 10.4793C14.2651 10.0822 14.5972 9.74816 15.0192 9.74816C15.4246 9.74816 15.7609 10.0565 15.7217 10.4398C15.5957 11.6726 15.0471 12.8752 14.072 13.8235C11.8252 16.0086 8.1748 16.0086 5.92796 13.8235C3.69068 11.6477 3.69068 8.12669 5.92796 5.95091C7.66551 4.2611 10.244 3.87692 12.3647 4.80385L13.1152 4.07398C13.3283 3.86673 13.6522 3.8027 13.9346 3.912Z" fill="#848CEC"/>
</svg>
